<?xml version="1.0" encoding="utf-8"?>
<!-- Generator: Adobe Illustrator 16.0.0, SVG Export Plug-In . SVG Version: 6.00 Build 0)  -->
<!DOCTYPE svg PUBLIC "-//W3C//DTD SVG 1.1//EN" "http://www.w3.org/Graphics/SVG/1.1/DTD/svg11.dtd">
<svg version="1.1" id="Calque_1" xmlns="http://www.w3.org/2000/svg" xmlns:xlink="http://www.w3.org/1999/xlink" x="0px" y="0px"
	 width="200px" height="200px" viewBox="0 0 200 200" enable-background="new 0 0 200 200" xml:space="preserve">
<g>
	<circle cx="98.281" cy="59.546" r="4.511"/>
	<circle cx="122.338" cy="59.546" r="4.511"/>
	<circle cx="110.31" cy="71.574" r="4.51"/>
	<circle cx="146.395" cy="59.546" r="4.511"/>
	<circle cx="134.366" cy="71.574" r="4.51"/>
	<circle cx="50.168" cy="59.546" r="4.511"/>
	<circle cx="74.225" cy="59.546" r="4.511"/>
	<circle cx="62.197" cy="71.574" r="4.51"/>
	<circle cx="86.253" cy="71.574" r="4.51"/>
	<circle cx="98.281" cy="83.602" r="4.51"/>
	<circle cx="122.338" cy="83.602" r="4.51"/>
	<circle cx="110.31" cy="95.631" r="4.51"/>
	<circle cx="74.225" cy="83.602" r="4.51"/>
	<circle cx="86.253" cy="95.631" r="4.51"/>
	<path d="M188.493,52.028h-20.973c0.24-1.979,0.402-3.99,0.52-6.014h2.41c1.661,0,3.008-1.347,3.008-3.007
		c0-1.66-1.347-3.007-3.008-3.007h-2.199h-0.015H28.326h-2.214c-1.661,0-3.007,1.347-3.007,3.007c0,1.661,1.346,3.007,3.007,3.007
		h2.409c0.119,2.024,0.281,4.035,0.521,6.014H8.069c-1.661,0-3.007,1.347-3.007,3.007v6.014c0,1.661,1.346,3.007,3.007,3.007h23.23
		c5.417,21.068,18.064,38.213,36.306,47.226l-5.409,18.93h-3.007c-1.66,0-3.007,1.346-3.007,3.007s1.347,3.007,3.007,3.007h78.184
		c1.661,0,3.007-1.346,3.007-3.007s-1.346-3.007-3.007-3.007h-3.007l-5.409-18.93c18.241-9.013,30.889-26.157,36.307-47.226h23.229
		c1.66,0,3.007-1.347,3.007-3.007v-6.014C191.5,53.375,190.153,52.028,188.493,52.028z M128.352,130.212H68.21l4.737-16.577
		c7.629,2.938,16.103,4.549,25.334,4.549c9.23,0,17.704-1.61,25.334-4.549L128.352,130.212z M98.281,112.169
		c-35.844,0-61.395-26.905-63.762-66.155h127.524C159.677,85.264,134.125,112.169,98.281,112.169z"/>
</g>
</svg>
