<?xml version="1.0" encoding="utf-8"?>
<!-- Generator: Adobe Illustrator 16.0.0, SVG Export Plug-In . SVG Version: 6.00 Build 0)  -->
<!DOCTYPE svg PUBLIC "-//W3C//DTD SVG 1.1//EN" "http://www.w3.org/Graphics/SVG/1.1/DTD/svg11.dtd">
<svg version="1.1" id="Calque_1" xmlns="http://www.w3.org/2000/svg" xmlns:xlink="http://www.w3.org/1999/xlink" x="0px" y="0px"
	 width="200px" height="200px" viewBox="0 0 200 200" enable-background="new 0 0 200 200" xml:space="preserve">
<rect fill="#EC6147" width="200" height="5"/>
<rect y="10" fill="#EC6147" width="200" height="5"/>
<rect y="20" fill="#EC6147" width="200" height="5"/>
<rect y="30" fill="#EC6147" width="200" height="5"/>
<rect y="40" fill="#EC6147" width="200" height="5"/>
<rect y="50" fill="#EC6147" width="200" height="5"/>
<rect y="60" fill="#EC6147" width="200" height="5"/>
<rect y="70" fill="#EC6147" width="200" height="5"/>
<rect y="80" fill="#EC6147" width="200" height="5"/>
<rect y="90" fill="#EC6147" width="200" height="5"/>
<rect y="100" fill="#EC6147" width="200" height="5"/>
<rect y="110" fill="#EC6147" width="200" height="5"/>
<rect y="120" fill="#EC6147" width="200" height="5"/>
<rect y="130" fill="#EC6147" width="200" height="5"/>
<rect y="140" fill="#EC6147" width="200" height="5"/>
<rect y="150" fill="#EC6147" width="200" height="5"/>
<rect y="160" fill="#EC6147" width="200" height="5"/>
<rect y="170" fill="#EC6147" width="200" height="5"/>
<rect y="180" fill="#EC6147" width="200" height="5"/>
<rect y="190" fill="#EC6147" width="200" height="5"/>
<rect x="-2" fill="#EC6147" width="3" height="200"/>
<rect x="15" fill="#EC6147" width="3" height="200"/>
<rect x="32" fill="#EC6147" width="3" height="200"/>
<rect x="49" fill="#EC6147" width="3" height="200"/>
<rect x="66" fill="#EC6147" width="3" height="200"/>
<rect x="83" fill="#EC6147" width="3" height="200"/>
<rect x="100" fill="#EC6147" width="3" height="200"/>
<rect x="117" fill="#EC6147" width="3" height="200"/>
<rect x="134" fill="#EC6147" width="3" height="200"/>
<rect x="151" fill="#EC6147" width="3" height="200"/>
<rect x="168" fill="#EC6147" width="3" height="200"/>
<rect x="185" fill="#EC6147" width="3" height="200"/>
</svg>
